<?xml version="1.0" standalone="no"?>
<!DOCTYPE svg PUBLIC "-//W3C//DTD SVG 1.1//EN" "http://www.w3.org/Graphics/SVG/1.1/DTD/svg11.dtd" >
<svg xmlns="http://www.w3.org/2000/svg">
<metadata></metadata>
<defs>
<font id="playground_boldbold" horiz-adv-x="2560" >
<font-face units-per-em="2048" ascent="1587" descent="-461" />
<missing-glyph horiz-adv-x="552" />
<glyph unicode="&#xfb01;" horiz-adv-x="1341" d="M37 825v224h205v178q0 146 103.5 239t285.5 93q65 0 143 -19l-31 -221q-61 14 -92 14q-75 0 -113 -32.5t-38 -106.5v-145h678v-1049h-265v834h-413v-834h-262v825h-201zM911 1266v272h273v-272h-273z" />
<glyph unicode="&#xfb03;" horiz-adv-x="2019" d="M37 825v224h205v178q0 146 105.5 239t287.5 93q73 0 151 -19l-30 -221q-61 14 -101 14q-155 0 -155 -139v-145h420v182q0 146 103.5 237t285.5 91q65 0 143 -19l-31 -221q-61 14 -92 14q-75 0 -113 -32.5t-38 -106.5v-145h677v-1049h-264v834h-413v-834h-263v834h-415 v-834h-262v825h-201zM1589 1266v272h273v-272h-273z" />
<glyph horiz-adv-x="0" />
<glyph horiz-adv-x="682" />
<glyph unicode=" "  horiz-adv-x="552" />
<glyph unicode="&#x09;" horiz-adv-x="552" />
<glyph unicode="&#xa0;" horiz-adv-x="552" />
<glyph unicode="!" horiz-adv-x="663" d="M172 0v326h307v-326h-307zM184 1501h299l-30 -948h-244z" />
<glyph unicode="&#x22;" horiz-adv-x="954" d="M123 1501h264l-22 -500h-220zM567 1501h264l-22 -500h-219z" />
<glyph unicode="$" horiz-adv-x="1204" d="M53 367l221 79q33 -88 86 -147.5t140 -83.5v422q-363 100 -363 393q0 150 99.5 248.5t263.5 122.5v254h188v-256q147 -23 248 -117t129 -233l-229 -66q-39 148 -148 191v-353q6 -2 17 -5t16 -5q96 -28 163.5 -62.5t120 -83.5t78 -117t25.5 -157q0 -91 -33.5 -164.5 t-92.5 -121.5t-133 -76t-161 -37v-279h-188v283q-178 25 -295 127.5t-152 243.5zM377 1040q0 -103 123 -159v299q-58 -17 -90.5 -54t-32.5 -86zM688 209q77 15 125.5 60.5t48.5 125.5q0 68 -39.5 116t-134.5 77v-379z" />
<glyph unicode="&#x26;" horiz-adv-x="1417" d="M123 406q0 123 64.5 220t191.5 148q-74 53 -118 128t-44 159q0 150 120.5 252t305.5 102q159 0 274 -87t154 -224l-231 -78q-23 69 -70.5 114.5t-122.5 45.5t-123.5 -45.5t-48.5 -108.5q0 -40 15.5 -72.5t40 -51.5t46 -29t41.5 -15v-217q-104 -9 -162.5 -71t-58.5 -150 q0 -99 76 -155t182 -56q108 0 181 61.5t73 155.5q0 59 -26.5 115t-87.5 94v221h508v-219h-230q98 -116 98 -254q0 -179 -144.5 -297.5t-371.5 -118.5q-143 0 -263.5 52.5t-194.5 152.5t-74 228z" />
<glyph unicode="'" horiz-adv-x="524" d="M123 1501h278l-22 -500h-234z" />
<glyph unicode="(" horiz-adv-x="704" d="M115 680q0 266 102.5 528.5t280.5 474.5l178 -137q-301 -404 -301 -866t301 -866l-178 -138q-178 212 -280.5 475t-102.5 529z" />
<glyph unicode=")" horiz-adv-x="704" d="M29 -186q301 404 301 866t-301 866l178 137q178 -212 280.5 -474.5t102.5 -528.5t-102.5 -529t-280.5 -475z" />
<glyph unicode="+" horiz-adv-x="1382" d="M168 481v228h401v409h244v-409h401v-228h-401v-450h-244v450h-401z" />
<glyph unicode="," horiz-adv-x="598" d="M168 -225v555h262v-484z" />
<glyph unicode="-" horiz-adv-x="829" d="M111 471v248h608v-248h-608z" />
<glyph unicode="." horiz-adv-x="643" d="M168 0v326h307v-326h-307z" />
<glyph unicode="/" horiz-adv-x="993" d="M49 0l643 1501h252l-639 -1501h-256z" />
<glyph unicode="0" horiz-adv-x="1204" d="M98 694q0 128 19 237.5t59.5 199t99.5 152.5t142 97.5t184 34.5t184 -34.5t142 -97.5t99.5 -152.5t59.5 -199t19 -237.5q0 -217 -53.5 -376.5t-168 -252t-282.5 -92.5t-282.5 92.5t-168 252t-53.5 376.5zM354 694q0 -91 10.5 -167t36 -149t77 -115t124.5 -42q66 0 113 42 t70.5 114.5t33.5 149.5t10 167t-10 167t-33.5 149.5t-70.5 114.5t-113 42q-73 0 -124.5 -42t-77 -115t-36 -149t-10.5 -167z" />
<glyph unicode="1" horiz-adv-x="1204" d="M154 1169l405 220h250v-1389h-268v1100l-330 -178z" />
<glyph unicode="2" horiz-adv-x="1204" d="M98 0v242l527 516q76 86 104.5 145t28.5 111q0 66 -47.5 109.5t-120.5 43.5q-79 0 -138 -46t-79 -130l-250 62q25 154 155.5 258t307.5 104q197 0 321.5 -107.5t124.5 -293.5q0 -121 -58 -227t-186 -228l-327 -313l600 4v-250h-963z" />
<glyph unicode="3" horiz-adv-x="1204" d="M59 375l258 55q30 -106 103 -159.5t180 -53.5q88 0 155.5 55.5t67.5 157.5q0 86 -70 140.5t-190 54.5h-90v233h88q98 0 152.5 48.5t54.5 119.5q0 64 -41.5 109t-124.5 45q-77 0 -133 -44.5t-76 -123.5l-254 69q37 152 163.5 243t297.5 91q194 0 318 -107t124 -272 q0 -186 -165 -286q107 -51 167 -140.5t60 -212.5q0 -188 -144 -306t-358 -118q-134 0 -248 46.5t-193 138.5t-102 217z" />
<glyph unicode="4" horiz-adv-x="1204" d="M78 279v237l487 873h287l-483 -877h346v375l243 -51v-318h189v-239h-189v-279h-243v279h-637z" />
<glyph unicode="5" horiz-adv-x="1204" d="M80 375l260 59q68 -215 270 -215q88 0 153.5 64t65.5 176q0 105 -61 166t-154 61q-106 0 -206 -63l-240 77l111 689h712v-242h-497l-43 -270q95 45 196 45q203 0 331 -125.5t128 -333.5q0 -114 -39 -207.5t-106 -154.5t-157 -94.5t-192 -33.5q-195 0 -343.5 107.5 t-188.5 294.5z" />
<glyph unicode="6" horiz-adv-x="1204" d="M102 444q0 148 131 361l363 584h297l-334 -519q34 9 70 9q127 0 233 -49.5t173 -150t67 -235.5q0 -208 -143 -339.5t-359 -131.5q-214 0 -356 131t-142 340zM371 440q0 -92 63.5 -155.5t167.5 -63.5q102 0 163.5 64t61.5 161q0 90 -64.5 154t-164.5 64q-103 0 -165 -65 t-62 -159z" />
<glyph unicode="7" horiz-adv-x="1204" d="M113 1137v252h985v-246l-664 -1143h-313l665 1137h-673z" />
<glyph unicode="8" horiz-adv-x="1204" d="M84 412q0 117 66 209t182 145q-75 48 -116.5 120.5t-41.5 160.5q0 158 117.5 263t312.5 105q196 0 313 -105t117 -263q0 -88 -42 -161.5t-115 -121.5q113 -52 178 -144t65 -208q0 -187 -145.5 -313t-372.5 -126q-225 0 -371.5 126.5t-146.5 312.5zM356 424q0 -85 67 -148 t181 -63q112 0 181 63.5t69 147.5t-71 149.5t-179 65.5q-109 0 -178.5 -65.5t-69.5 -149.5zM426 1030q0 -59 49.5 -110.5t126.5 -51.5q79 0 128.5 51t49.5 111q0 67 -44.5 117.5t-133.5 50.5q-87 0 -131.5 -50.5t-44.5 -117.5z" />
<glyph unicode="9" horiz-adv-x="1204" d="M111 958q0 200 143.5 328.5t351.5 128.5q135 0 246 -53.5t176.5 -152.5t65.5 -224q0 -163 -133 -381l-371 -604h-305l336 528q-14 -2 -43 -2q-91 0 -175 29.5t-149 83t-104 136.5t-39 183zM383 958q0 -92 65.5 -155.5t159.5 -63.5q98 0 160.5 61t62.5 158q0 87 -65.5 150 t-161.5 63q-92 0 -156.5 -62.5t-64.5 -150.5z" />
<glyph unicode=":" horiz-adv-x="651" d="M166 0v326h307v-326h-307zM166 719v325h307v-325h-307z" />
<glyph unicode=";" horiz-adv-x="589" d="M160 723v326h307v-326h-307zM184 -225v555h262v-484z" />
<glyph unicode="=" horiz-adv-x="1456" d="M184 256v227h1088v-227h-1088zM184 709v227h1088v-227h-1088z" />
<glyph unicode="?" horiz-adv-x="1032" d="M39 1126q29 188 158.5 295t308.5 107q193 0 319.5 -110t126.5 -281q0 -222 -204 -363q-46 -32 -73 -56.5t-39 -51t-15 -47t-3 -58.5v-43h-266v47q0 63 5.5 105.5t23.5 89.5t55 86t96 74q148 90 148 200q0 75 -47.5 121.5t-120.5 46.5q-84 0 -144 -58t-81 -165zM334 0v326 h307v-326h-307z" />
<glyph unicode="@" horiz-adv-x="1910" d="M111 637q0 184 61 346.5t171 283.5t273.5 191t356.5 70q154 0 288.5 -44t232 -120.5t167.5 -177.5t104.5 -215.5t34.5 -233.5q0 -206 -97 -338.5t-261 -132.5q-75 0 -152 33.5t-119 87.5q-90 -127 -251 -127q-152 0 -246 115t-94 289q0 168 94 281.5t241 113.5 q111 0 193 -82v59h215v-458q-1 -51 31.5 -81t75.5 -28q131 0 131 268q0 112 -39 213t-111 180.5t-185.5 126t-252.5 46.5q-182 0 -323.5 -89.5t-216.5 -240.5t-75 -336q0 -138 46.5 -261.5t128.5 -214.5t201.5 -144.5t258.5 -53.5q297 0 484 209l178 -147 q-118 -134 -289 -209.5t-365 -75.5q-161 0 -302 45t-248 127.5t-184 193.5t-116.5 246.5t-39.5 284.5zM793 664q0 -89 44.5 -147t118.5 -58q52 0 91.5 30t60.5 82v177q-21 51 -61 80.5t-91 29.5q-73 0 -118 -56t-45 -138z" />
<glyph unicode="A" horiz-adv-x="1462" d="M25 0l542 1511h328l543 -1511h-293l-144 420h-540l-144 -420h-292zM545 659h373l-187 545z" />
<glyph unicode="B" horiz-adv-x="1396" d="M178 0v1501h590q132 0 239.5 -44t174.5 -135t67 -216q0 -96 -41 -181t-135 -132q79 -29 135 -87.5t81.5 -130t25.5 -151.5q0 -99 -40.5 -180.5t-110.5 -134t-162 -81t-195 -28.5h-629zM451 258h356q98 0 160.5 55t62.5 144q0 94 -62.5 153.5t-156.5 59.5h-360v-412z M451 915h321q93 0 144 42.5t51 123.5q0 78 -55 124t-144 46h-317v-336z" />
<glyph unicode="C" horiz-adv-x="1411" d="M100 750q0 231 82 408t231 273.5t343 96.5q221 0 377.5 -127t207.5 -344l-268 -80q-31 127 -116.5 206t-196.5 79t-197 -70.5t-130 -185.5t-44 -252q0 -138 44.5 -254.5t131 -188t197.5 -71.5q113 0 194 74t117 200l268 -80q-55 -212 -208 -336.5t-373 -124.5 q-295 0 -477.5 214.5t-182.5 562.5z" />
<glyph unicode="D" horiz-adv-x="1458" d="M178 0v1501h490q319 0 504.5 -198t185.5 -543q0 -226 -83 -398t-239.5 -267t-365.5 -95h-492zM451 262h215q126 0 218.5 68t137.5 179.5t45 250.5q0 212 -106 345.5t-297 133.5h-213v-977z" />
<glyph unicode="E" horiz-adv-x="1267" d="M178 0v1501h961v-256h-686v-319h614v-252h-614v-414h716v-260h-991z" />
<glyph unicode="F" horiz-adv-x="1214" d="M178 0v1501h963v-256h-688v-336h614v-252h-614v-657h-275z" />
<glyph unicode="G" horiz-adv-x="1495" d="M100 750q0 231 82 408t231.5 273.5t344.5 96.5q223 0 382.5 -119t213.5 -324l-267 -81q-34 120 -120.5 189t-204.5 69q-111 0 -197.5 -71t-131 -186t-44.5 -251q0 -138 46.5 -254t138 -188t210.5 -72q103 0 179.5 52t113.5 131t39 171h-373v229h641q11 -58 11 -143 q0 -162 -45.5 -295.5t-126 -223.5t-194 -139t-247.5 -49q-307 0 -494.5 214t-187.5 563z" />
<glyph unicode="H" horiz-adv-x="1517" d="M178 0v1501h275v-547h612v547h274v-1501h-274v698h-612v-698h-275z" />
<glyph unicode="I" horiz-adv-x="630" d="M178 0v1501h275v-1501h-275z" />
<glyph unicode="J" horiz-adv-x="1163" d="M29 379l262 82q60 -228 241 -228q120 0 168 109q29 67 29 225v936h279v-932q0 -200 -25 -286q-42 -152 -159 -232t-285 -80q-197 0 -332 108t-178 298z" />
<glyph unicode="K" horiz-adv-x="1427" d="M178 0v1501h273v-674l581 674h338l-518 -600l580 -901h-316l-454 705l-211 -238v-467h-273z" />
<glyph unicode="L" horiz-adv-x="1161" d="M178 0v1501h277v-1243h647v-258h-924z" />
<glyph unicode="M" horiz-adv-x="1765" d="M178 0v1501h346l363 -817l360 817h340v-1501h-266v1081l-315 -721h-246l-316 730v-1090h-266z" />
<glyph unicode="N" horiz-adv-x="1511" d="M178 0v1501h291l606 -1077l-2 1077h260v-1501h-291l-606 1051l2 -1051h-260z" />
<glyph unicode="O" horiz-adv-x="1581" d="M100 750q0 355 191.5 566.5t499.5 211.5t499 -211.5t191 -566.5q0 -353 -191.5 -565t-498.5 -212q-202 0 -358.5 94.5t-244.5 271.5t-88 411zM391 750q0 -140 46 -254.5t138.5 -185t215.5 -70.5t215 70.5t138 185t46 254.5q0 141 -46 256t-138 185.5t-215 70.5 t-215.5 -70.5t-138.5 -185.5t-46 -256z" />
<glyph unicode="P" horiz-adv-x="1327" d="M176 0v1501h559q249 0 384.5 -124t135.5 -326q0 -205 -135.5 -332t-384.5 -127h-286v-592h-273zM449 850h292q106 0 170 54t64 145q0 93 -64 147.5t-170 54.5h-292v-401z" />
<glyph unicode="Q" horiz-adv-x="1581" d="M100 750q0 355 191.5 566.5t499.5 211.5t499 -211.5t191 -566.5q0 -353 -191.5 -565t-498.5 -212q-41 0 -95 7l-116 -193q132 66 282 66q141 0 274 -49.5t228 -133.5l-182 -188q-151 121 -373 121q-173 0 -342 -101l-217 146l223 397q-175 89 -274 272t-99 433zM391 750 q0 -140 46 -254.5t138.5 -185t215.5 -70.5t215 70.5t138 185t46 254.5q0 141 -46 256t-138 185.5t-215 70.5t-215.5 -70.5t-138.5 -185.5t-46 -256z" />
<glyph unicode="R" horiz-adv-x="1384" d="M178 0v1501h557q250 0 385 -117.5t135 -312.5q0 -149 -79.5 -256t-229.5 -151l404 -664h-312l-374 635h-213v-635h-273zM451 883h290q106 0 170 49.5t64 136.5q0 86 -64 134t-170 48h-290v-368z" />
<glyph unicode="S" horiz-adv-x="1308" d="M53 395l256 88q42 -115 132.5 -186.5t232.5 -71.5q64 0 119 20.5t94 70.5t39 122q0 66 -45 117.5t-146 77.5l-172 45q-416 101 -416 420q0 188 138.5 309t353.5 121q200 0 342 -110t176 -285l-260 -64q-64 207 -260 207q-86 0 -141.5 -46.5t-55.5 -115.5q0 -23 8 -44 t17.5 -35.5t29.5 -29.5t31.5 -22.5t37.5 -18t34 -13.5t33 -11q90 -24 166 -43q218 -59 320 -166t102 -301q0 -113 -45.5 -202t-123 -143.5t-174 -83t-204.5 -28.5q-240 0 -403 120.5t-216 301.5z" />
<glyph unicode="T" horiz-adv-x="1236" d="M53 1245v256h1131v-256h-426v-1245h-277v1245h-428z" />
<glyph unicode="U" horiz-adv-x="1433" d="M156 549v954h278v-925q0 -147 71 -242.5t212 -95.5q142 0 212 88.5t70 232.5v942h279v-954q0 -180 -72.5 -311.5t-198.5 -198t-290 -66.5t-290 66.5t-198.5 198t-72.5 311.5z" />
<glyph unicode="V" horiz-adv-x="1431" d="M23 1501h305l389 -1132l391 1132h301l-539 -1501h-307z" />
<glyph unicode="W" horiz-adv-x="2093" d="M66 1501h286l226 -1065l315 1043h311l316 -1039l225 1061h283l-338 -1501h-299l-342 1135l-347 -1135h-296z" />
<glyph unicode="X" horiz-adv-x="1331" d="M12 0l498 776l-447 697h314l289 -453l290 453h314l-447 -697l496 -776h-311l-342 532l-342 -532h-312z" />
<glyph unicode="Y" horiz-adv-x="1327" d="M18 1501h318l328 -553l327 553h318l-506 -825v-676h-277v672z" />
<glyph unicode="Z" horiz-adv-x="1218" d="M66 0v254l714 999l-680 -2v250h1018v-248l-719 -999l754 2v-256h-1087z" />
<glyph unicode="_" horiz-adv-x="1308" d="M111 0h1087v-236h-1087v236z" />
<glyph unicode="a" horiz-adv-x="1146" d="M90 307q0 152 112 245t294 93q124 0 235 -49v61q0 81 -45.5 136t-136.5 55q-67 0 -117 -34t-70 -83l-227 88q44 116 153 186t259 70q176 0 291 -89t139 -222q14 -79 14 -182v-582h-260v94q-113 -119 -278 -119q-160 0 -261.5 94.5t-101.5 237.5zM352 332q0 -58 42 -97.5 t112 -39.5q68 0 130 34.5t95 87.5v101q-77 55 -192 55q-90 0 -138.5 -40.5t-48.5 -100.5z" />
<glyph unicode="b" horiz-adv-x="1261" d="M168 0v1538h262v-582q113 119 277 119q136 0 243.5 -74.5t165.5 -200.5t58 -278q0 -151 -58 -276t-165.5 -199t-243.5 -74q-164 0 -277 119v-92h-262zM430 381q33 -73 93.5 -118.5t131.5 -45.5q77 0 134.5 44t85.5 112t28 149q0 127 -66.5 218t-181.5 91 q-72 0 -132 -45.5t-93 -119.5v-285z" />
<glyph unicode="c" horiz-adv-x="1122" d="M88 522q0 111 33 209.5t95 176t160.5 122.5t221.5 45q177 0 297 -100.5t154 -251.5l-250 -64q-16 68 -72 120t-131 52q-76 0 -132 -46.5t-81 -115t-25 -147.5q0 -77 24.5 -144t81.5 -114t138 -47q78 0 135.5 47.5t71.5 112.5l248 -55q-25 -140 -150.5 -244.5 t-308.5 -104.5q-126 0 -225.5 45t-160.5 122.5t-92.5 174.5t-31.5 207z" />
<glyph unicode="d" horiz-adv-x="1261" d="M88 522q0 152 58 278t165.5 200.5t243.5 74.5q168 0 276 -121v584h263v-1538h-263v92q-109 -119 -276 -119q-136 0 -243.5 74t-165.5 199t-58 276zM358 522q0 -81 28 -149t85.5 -112t134.5 -44q71 0 131.5 45.5t93.5 118.5v285q-33 74 -93 119.5t-132 45.5 q-115 0 -181.5 -91t-66.5 -218z" />
<glyph unicode="e" horiz-adv-x="1177" d="M88 522q0 87 20 167t62 150.5t101.5 123t143.5 82.5t183 30q120 0 216 -42.5t155 -114.5t90 -163t31 -194v-76h-734q6 -74 35 -135t89 -103t143 -42q79 0 137 41t84 108l239 -69q-47 -138 -171.5 -225t-290.5 -87q-129 0 -232 45t-168 122t-99 175t-34 207zM375 668h456 q-19 80 -76.5 132t-154.5 52q-170 0 -225 -184z" />
<glyph unicode="f" horiz-adv-x="811" d="M37 821v228h205v178q0 146 105.5 239t287.5 93q73 0 151 -19l-30 -225q-61 14 -101 14q-155 0 -155 -139v-141h266v-230h-266v-819h-262v821h-201z" />
<glyph unicode="g" horiz-adv-x="1128" d="M-16 -281l159 175q77 -83 178 -131t218 -48q102 0 173.5 39.5t71.5 108.5q0 68 -57 109.5t-162 41.5q-148 0 -260 -55l-174 127l166 322q-88 46 -137 125t-49 176q0 163 120 264.5t318 101.5q123 0 215 -47l133 150l176 -166l-141 -127q51 -79 51 -176 q0 -162 -119 -261.5t-315 -99.5q-29 0 -43 2l-92 -172q109 37 215 37q191 0 309.5 -95t118.5 -253q0 -166 -142.5 -274.5t-367.5 -108.5q-170 0 -315.5 64t-247.5 171zM354 705q0 -67 55 -109.5t140 -42.5q86 0 141 42.5t55 109.5q0 70 -53.5 115.5t-142.5 45.5 q-88 0 -141.5 -45.5t-53.5 -115.5z" />
<glyph unicode="h" horiz-adv-x="1234" d="M168 0v1538h264v-577q108 114 266 114q75 0 139 -26t107.5 -68t74.5 -95.5t45.5 -109t14.5 -108.5v-668h-266v627q0 82 -45.5 143t-132.5 61q-65 0 -118.5 -37.5t-84.5 -97.5v-696h-264z" />
<glyph unicode="i" horiz-adv-x="600" d="M158 1266v272h284v-272h-284zM168 0v1049h264v-1049h-264z" />
<glyph unicode="j" horiz-adv-x="604" d="M-104 -444l53 229q61 -23 112 -23q109 0 109 105v1182h264v-1168q0 -150 -39 -217q-84 -143 -295 -143q-45 0 -105.5 10.5t-98.5 24.5zM156 1266v272h290v-272h-290z" />
<glyph unicode="k" horiz-adv-x="1132" d="M168 0v1538h262v-874l356 385h318l-379 -408l434 -641h-299l-313 467l-117 -123v-344h-262z" />
<glyph unicode="l" horiz-adv-x="600" d="M168 0v1538h264v-1538h-264z" />
<glyph unicode="m" horiz-adv-x="1734" d="M160 0v1049h260v-91q92 117 233 117q158 0 256 -127q114 127 295 127q90 0 164 -34.5t118.5 -89t68.5 -116.5t24 -122v-713h-266v684q0 57 -42.5 103.5t-109.5 46.5q-55 0 -99.5 -35t-66.5 -94v-705h-256v684q0 57 -40.5 103.5t-108.5 46.5q-56 0 -102 -37.5t-68 -100.5 v-696h-260z" />
<glyph unicode="n" horiz-adv-x="1234" d="M168 0v1049h264v-88q108 114 266 114q75 0 139 -26t107.5 -68t74.5 -95.5t45.5 -109t14.5 -108.5v-668h-266v627q0 82 -45.5 143t-132.5 61q-65 0 -118.5 -37.5t-84.5 -97.5v-696h-264z" />
<glyph unicode="o" horiz-adv-x="1245" d="M88 522q0 153 64.5 278t187.5 200t283 75t283 -75t187 -200t64 -278q0 -152 -64 -276t-187 -198.5t-283 -74.5t-283 74t-187.5 198.5t-64.5 276.5zM358 522q0 -127 72.5 -216t192.5 -89t192 89t72 216t-72 218t-192 91t-192.5 -91t-72.5 -218z" />
<glyph unicode="p" horiz-adv-x="1261" d="M168 -461v1510h262v-93q113 119 277 119q136 0 243.5 -74.5t165.5 -200.5t58 -278q0 -151 -58 -276t-165.5 -199t-243.5 -74q-164 0 -277 119v-553h-262zM430 381q33 -73 93.5 -118.5t131.5 -45.5q77 0 134.5 44t85.5 112t28 149q0 127 -66.5 218t-181.5 91 q-72 0 -132 -45.5t-93 -119.5v-285z" />
<glyph unicode="q" horiz-adv-x="1261" d="M86 522q0 152 58 278t165.5 200.5t243.5 74.5q168 0 276 -121v95h263v-1510h-263v553q-109 -119 -276 -119q-136 0 -243.5 74t-165.5 199t-58 276zM356 522q0 -81 28 -149t85.5 -112t134.5 -44q71 0 131.5 45.5t93.5 118.5v285q-33 74 -93 119.5t-132 45.5 q-115 0 -181.5 -91t-66.5 -218z" />
<glyph unicode="r" horiz-adv-x="796" d="M168 0v1049h266v-88q75 114 250 114q51 0 100 -14l-22 -252q-54 14 -96 14q-87 0 -149 -48.5t-83 -121.5v-653h-266z" />
<glyph unicode="s" horiz-adv-x="1046" d="M55 305l232 72q29 -84 96 -137.5t154 -53.5q64 0 111.5 31t47.5 92q0 97 -151 125q-119 23 -207 58q-203 85 -203 276q0 131 107 219t266 88q157 0 264 -70.5t146 -195.5l-228 -70q-49 133 -172 133q-52 0 -85.5 -27t-33.5 -71q0 -82 95 -104q77 -17 116 -23 q183 -35 269 -118t86 -222q0 -82 -36 -147.5t-97 -105t-135 -60.5t-154 -21q-177 0 -311 92t-177 240z" />
<glyph unicode="t" horiz-adv-x="862" d="M29 823v226h209v251l254 70v-321h290v-228h-290v-475q0 -63 34 -95t84 -32q54 0 129 35l64 -223q-42 -25 -107.5 -39.5t-122.5 -14.5q-216 0 -305 154q-41 73 -41 215v477h-198z" />
<glyph unicode="u" horiz-adv-x="1222" d="M156 381v668h266v-627q0 -53 16 -97.5t56.5 -76t99.5 -31.5q64 0 116 37t81 96v699h264v-1049h-264v88q-101 -115 -261 -115q-75 0 -138.5 26t-106 68t-72.5 96t-43.5 109.5t-13.5 108.5z" />
<glyph unicode="v" horiz-adv-x="1126" d="M8 1049h293l262 -736l262 736h293l-413 -1049h-283z" />
<glyph unicode="w" horiz-adv-x="1665" d="M45 1047h270l160 -723l203 708h313l201 -708l160 723h268l-266 -1047h-285l-235 754l-240 -754h-283z" />
<glyph unicode="x" horiz-adv-x="1114" d="M4 0l404 553l-361 496h305l205 -289l205 289h305l-360 -496l403 -553h-305l-248 346l-248 -346h-305z" />
<glyph unicode="y" horiz-adv-x="1126" d="M8 1049h293l264 -736l260 736h293l-512 -1305q-50 -116 -126.5 -169.5t-194.5 -53.5q-94 0 -176 30l45 234q55 -16 96 -16q45 0 77 19.5t54 72.5l51 129z" />
<glyph unicode="z" horiz-adv-x="1013" d="M82 0v231l512 586l-496 -2v234h815v-232l-510 -586l529 2v-233h-850z" />
<glyph unicode="&#xad;" horiz-adv-x="829" d="M111 471v248h608v-248h-608z" />
<glyph unicode="&#xb7;" horiz-adv-x="720" d="M180 621q0 73 53 126.5t127 53.5t127.5 -53.5t53.5 -126.5t-53.5 -127t-127.5 -54q-73 0 -126.5 53.5t-53.5 127.5z" />
<glyph unicode="&#xc0;" d="M215 621l649 649l154 -152l-422 -397l1667 2v-205l-1669 2l422 -397l-152 -152z" />
<glyph unicode="&#xc1;" horiz-adv-x="2201" d="M10 117v184h1356v-184h-1356zM10 -352h1684v-183h-1684v183zM10 770v182h1684v-182h-1684z" />
<glyph unicode="&#xc8;" d="M72 522v197h1228l-411 381l149 149l629 -628l-629 -629l-147 149l409 381h-1228zM1534 -143h598v1534h-598v202h821v-1939h-821v203z" />
<glyph unicode="&#xc9;" horiz-adv-x="2201" d="M10 -535v2309h1159l676 -678v-1631h-1835zM199 -362h1464v1280h-688v690h-776v-1970zM1143 1069h493l-493 504v-504z" />
<glyph unicode="&#xcc;" horiz-adv-x="2201" d="M10 -61v1548h508v233h170v-233h653v233h170v-233h506v-1548h-2007zM195 111h1638v1214h-322v-264h-170v264h-653v-264h-170v264h-323v-1214z" />
<glyph unicode="&#xcd;" horiz-adv-x="2201" d="M10 -334v1862l508 201l1323 -322v-1880l-471 156v-465zM195 -227l991 -326v1542l-991 326v-1542zM262 1462l1108 -364v-1252l287 -92v1536l-1116 281z" />
<glyph unicode="&#xd3;" horiz-adv-x="2201" d="M10 276h191v-632h1579v632h188v-811h-1958v811zM358 745l127 113l418 -446v1267h168v-1267l418 448l127 -115l-629 -628z" />
<glyph unicode="&#xd9;" horiz-adv-x="2009" d="M174 621l592 591l139 -133l-383 -362l1282 4v-199l-1286 4l385 -364l-137 -133z" />
<glyph unicode="&#xda;" horiz-adv-x="2201" d="M10 -535v1524h692v-166h-501v-1190h1229v529h182v-697h-1602zM721 264l956 950l-606 -10v170h889v-889h-172l8 598l-944 -950z" />
<glyph unicode="&#xdd;" horiz-adv-x="2201" d="M10 -117v1530h1802v-469h431v-1479h-1758v418h-475zM186 47h299v897h1149v307h-1448v-1204zM664 -367h1394v1147h-1394v-1147z" />
<glyph unicode="&#xe0;" d="M297 518v205l1667 -2l-422 397l154 152l649 -649l-649 -650l-152 152l422 397z" />
<glyph unicode="&#xe1;" d="M469 0v215h1683v-215h-1683zM469 635v217h1356v-217h-1356zM469 1272v215h1683v-215h-1683z" />
<glyph unicode="&#xe2;" d="M393 0q0 430 108 692t316 381q-63 155 -63 279q0 219 148.5 356t377.5 137t377.5 -137t148.5 -356q0 -124 -63 -279q208 -119 316 -381t108 -692h-248q0 293 -51.5 489.5t-147.5 310.5t-252 187q95 166 95 328q0 145 -79 230t-204 85t-204 -85t-79 -230q0 -162 95 -328 q-156 -73 -252 -187t-147.5 -310.5t-51.5 -489.5h-248z" />
<glyph unicode="&#xe3;" d="M276 0v1487h2008v-1487h-709l-586 -594l-160 53v541h-553zM498 201h534l-4 -477l418 477h616v1085h-1564v-1085z" />
<glyph unicode="&#xe4;" d="M268 -135l199 629l1284 1282l508 -508l-1284 -1284l-631 -195zM498 23l385 151l755 756l-229 227l-754 -754zM1548 1296l230 -227l202 203l-229 227z" />
<glyph unicode="&#xe5;" d="M297 1124q0 197 97.5 364t265 264t364.5 97t365 -97t266 -264t98 -364q0 -229 -137 -419l731 -717l-180 -181l-717 728q-195 -142 -426 -142q-197 0 -364.5 98t-265 266.5t-97.5 366.5zM541 1124q0 -212 139.5 -357.5t343.5 -145.5t344.5 145.5t140.5 357.5 q0 139 -64 253.5t-175.5 179.5t-245.5 65q-204 0 -343.5 -143t-139.5 -355z" />
<glyph unicode="&#xe7;" d="M102 557v154l578 567h1829v-1278h-1829zM336 635l452 -434h1502v876h-1502zM784 520v238h244v-238h-244z" />
<glyph unicode="&#xe8;" d="M205 -346v1939h821v-202h-598v-1534h598v-203h-821zM893 621l629 628l149 -149l-411 -381h1228v-197h-1228l409 -381l-147 -149z" />
<glyph unicode="&#xe9;" d="M362 -453v2308h1160l676 -677v-1631h-1836zM584 -248h1398v1219h-684v686h-714v-1905zM1495 1151h453l-453 469v-469z" />
<glyph unicode="&#xea;" d="M291 -453v2308h1691v-778h308v-1530h-1999zM508 -256h297v1333h967v580h-1264v-1913zM1022 -248h1055v1127h-1055v-1127z" />
<glyph unicode="&#xeb;" d="M272 4l705 744q-141 168 -208.5 348t-51.5 330.5t110 244.5q77 77 202 105.5t267 6.5t298 -104t286 -213q131 -133 216.5 -285t114.5 -290t5 -260.5t-102 -200.5q-96 -96 -252.5 -115.5t-343 44.5t-357.5 204l-725 -723zM957.5 1390q-8.5 -79 17.5 -173t91.5 -201.5 t160.5 -202.5q96 -96 204.5 -162.5t203.5 -93.5t174.5 -19t123.5 52q44 45 52 125t-19 175t-93 203.5t-161 204.5q-96 96 -203.5 161t-201.5 90.5t-173 16.5t-124 -53q-44 -44 -52.5 -123z" />
<glyph unicode="&#xec;" d="M276 -61v1548h508v233h191v-233h612v233h191v-233h506v-1548h-2008zM492 139h1576v1161h-290v-239h-191v239h-612v-239h-191v239h-292v-1161z" />
<glyph unicode="&#xed;" d="M365 -150v1862l507 201l1323 -322v-1880l-471 156v-465zM586 -18l923 -304v1469l-923 303v-1468zM668 1630l1056 -348v-1214l261 -84v1462l-1088 272z" />
<glyph unicode="&#xef;" d="M373 -453v2308l221 -280v-1823h1372v76l-1067 1358h-104v133l-201 256l-221 280h1814v-2308l-221 281v1823h-1372v-76l201 -256l104 -133l1067 -1358l221 -281h-1814zM795 -31v238h243v-238h-243zM795 580v237h243v-237h-243zM795 1319v104h243v-237h-139z" />
<glyph unicode="&#xf3;" d="M301 401h223v-600h1514v600h221v-811h-1958v811zM649 870l150 142l377 -408v1200h204v-1198l377 408l150 -144l-629 -628z" />
<glyph unicode="&#xf9;" horiz-adv-x="2009" d="M205 522v199l1282 -4l-383 362l139 133l592 -591l-592 -592l-137 133l385 364z" />
<glyph unicode="&#xfa;" d="M356 -174v1528h693v-207h-469v-1116h1159v491h223v-696h-1606zM1057 635l919 915l-559 -18v203h889v-889h-205l17 553l-910 -916z" />
<glyph unicode="&#xfd;" d="M164 207v1530h1802v-469h430v-1479h-1757v418h-475zM377 408h262v860h1110v270h-1372v-1130zM854 -6h1321v1073h-1321v-1073z" />
<glyph unicode="&#x2000;" horiz-adv-x="956" />
<glyph unicode="&#x2001;" horiz-adv-x="1913" />
<glyph unicode="&#x2002;" horiz-adv-x="956" />
<glyph unicode="&#x2003;" horiz-adv-x="1913" />
<glyph unicode="&#x2004;" horiz-adv-x="637" />
<glyph unicode="&#x2005;" horiz-adv-x="478" />
<glyph unicode="&#x2006;" horiz-adv-x="318" />
<glyph unicode="&#x2007;" horiz-adv-x="318" />
<glyph unicode="&#x2008;" horiz-adv-x="239" />
<glyph unicode="&#x2009;" horiz-adv-x="382" />
<glyph unicode="&#x200a;" horiz-adv-x="106" />
<glyph unicode="&#x2010;" horiz-adv-x="829" d="M111 471v248h608v-248h-608z" />
<glyph unicode="&#x2011;" horiz-adv-x="829" d="M111 471v248h608v-248h-608z" />
<glyph unicode="&#x2012;" horiz-adv-x="829" d="M111 471v248h608v-248h-608z" />
<glyph unicode="&#x2013;" horiz-adv-x="1431" d="M172 477v238h1088v-238h-1088z" />
<glyph unicode="&#x2014;" horiz-adv-x="2394" d="M172 475v240h2050v-240h-2050z" />
<glyph unicode="&#x2018;" horiz-adv-x="522" d="M131 1065v436h260v-532z" />
<glyph unicode="&#x2019;" horiz-adv-x="522" d="M131 969v532h260v-436z" />
<glyph unicode="&#x201c;" horiz-adv-x="960" d="M131 1063v438h246v-530zM584 1063v438h245v-530z" />
<glyph unicode="&#x201d;" horiz-adv-x="960" d="M131 971v530h246v-438zM584 971v530h245v-438z" />
<glyph unicode="&#x202f;" horiz-adv-x="382" />
<glyph unicode="&#x205f;" horiz-adv-x="478" />
<glyph unicode="&#x25fc;" horiz-adv-x="1044" d="M0 0v1044h1044v-1044h-1044z" />
</font>
</defs>
</svg>
